<svg xmlns="http://www.w3.org/2000/svg" width="1024" height="1536" viewBox="0 0 1024 1536">
  <defs>
    <radialGradient id="bgVm" cx="50%" cy="28%" r="85%">
      <stop offset="0%" stop-color="#182018"/>
      <stop offset="100%" stop-color="#080a07"/>
    </radialGradient>
  </defs>
  <rect width="1024" height="1536" fill="url(#bgVm)"/>
  <g opacity="0.5" stroke="#B67A2B" stroke-width="2">
    <circle cx="512" cy="640" r="230"/>
    <circle cx="512" cy="640" r="270"/>
  </g>
  <g transform="translate(512,700)">
    <path d="M -110 -230 L -125 220 Q -125 250 -95 250 L 95 250 Q 125 250 125 220 L 110 -230 Z" fill="#101a10" stroke="#B67A2B" stroke-width="4"/>
    <path d="M -119 -60 L -122 220 Q -122 238 -97 238 L 97 238 Q 122 238 122 220 L 119 -60 Z" fill="#33502f" opacity="0.85"/>
    <ellipse cx="0" cy="-230" rx="110" ry="15" fill="none" stroke="#B67A2B" stroke-width="4"/>
    <circle cx="-40" cy="-40" r="16" fill="#6a8f56" opacity="0.6"/>
    <circle cx="30" cy="10" r="14" fill="#6a8f56" opacity="0.5"/>
    <circle cx="-20" cy="60" r="12" fill="#6a8f56" opacity="0.5"/>
    <path d="M -50 -180 Q -60 -220 -20 -230 Q 10 -240 20 -210 Q 30 -230 55 -215 Q 40 -180 5 -170 Q -20 -160 -50 -180 Z" fill="#3f7a3a" stroke="#2c5628" stroke-width="2"/>
    <path d="M 10 -190 Q 40 -230 70 -215" fill="none" stroke="#2c5628" stroke-width="2"/>
    <line x1="-20" y1="-40" x2="18" y2="230" stroke="#cfe0c8" stroke-width="6" opacity="0.7"/>
  </g>
  <text x="50%" y="1200" text-anchor="middle" font-family="Georgia, serif" font-size="52" fill="#E7C99A" letter-spacing="1">Мохіто безалкогольне</text>
  <text x="50%" y="1260" text-anchor="middle" font-family="Georgia, serif" font-size="30" fill="#B67A2B" opacity="0.7" letter-spacing="6">BUNKER SOFT</text>
</svg>
